<svg xmlns="http://www.w3.org/2000/svg" width="1240" height="640" viewBox="0 0 1240 640">
  <!-- Модель как чёрный ящик с трещинами - приглушённая ocean-иллюстрация -->
  <!-- вход: поток текста слева -->
  <g stroke="#b9cbdd" stroke-width="10" stroke-linecap="round">
    <line x1="40"  y1="280" x2="200" y2="280"/>
    <line x1="70"  y1="330" x2="200" y2="330"/>
    <line x1="40"  y1="380" x2="200" y2="380"/>
  </g>
  <path d="M215 330 l70 0 l0 -22 l55 42 l-55 42 l0 -22 l-70 0 z" fill="#b9cbdd"/>
  <!-- сам чёрный ящик (приглушённый ocean-тон, темнее для метафоры) -->
  <rect x="370" y="120" width="500" height="420" rx="36" fill="#b8c9db" stroke="#8aa3bd" stroke-width="6"/>
  <!-- трещины -->
  <g stroke="#F0AB00" stroke-width="9" fill="none" stroke-linecap="round" stroke-linejoin="round">
    <path d="M470 120 l-18 70 l38 44 l-20 58"/>
    <path d="M770 540 l24 -78 l-40 -48 l18 -52"/>
    <path d="M870 300 l-64 12 l-30 -40"/>
  </g>
  <g stroke="#f4f7fa" stroke-width="6" fill="none" stroke-linecap="round">
    <path d="M620 120 l10 52 l-30 36"/>
    <path d="M370 400 l56 -6 l30 34"/>
  </g>
  <!-- вопросительный знак в центре ящика -->
  <text x="620" y="392" font-family="DejaVu Sans" font-size="200" font-weight="bold"
        fill="#f4f7fa" text-anchor="middle">?</text>
  <!-- выход: поток справа -->
  <path d="M900 330 l70 0 l0 -22 l55 42 l-55 42 l0 -22 l-70 0 z" fill="#b9cbdd"/>
  <g stroke="#b9cbdd" stroke-width="10" stroke-linecap="round">
    <line x1="1040" y1="280" x2="1200" y2="280"/>
    <line x1="1040" y1="330" x2="1170" y2="330"/>
    <line x1="1040" y1="380" x2="1200" y2="380"/>
  </g>
</svg>