<svg xmlns="http://www.w3.org/2000/svg" width="760" height="560" viewBox="0 0 760 560"><rect width="760" height="560" fill="none"/><text x="425.0" y="60" font-family="Inter, Arial, sans-serif" font-size="22" font-weight="700" fill="#21295C" text-anchor="middle">Матрица «пользователь × товар»</text><text x="205.0" y="94" font-family="Inter, Arial, sans-serif" font-size="21" fill="#065A82" font-weight="700" text-anchor="middle">товар 1</text><text x="315.0" y="94" font-family="Inter, Arial, sans-serif" font-size="21" fill="#065A82" font-weight="700" text-anchor="middle">товар 2</text><text x="425.0" y="94" font-family="Inter, Arial, sans-serif" font-size="21" fill="#065A82" font-weight="700" text-anchor="middle">товар 3</text><text x="535.0" y="94" font-family="Inter, Arial, sans-serif" font-size="21" fill="#065A82" font-weight="700" text-anchor="middle">товар 4</text><text x="645.0" y="94" font-family="Inter, Arial, sans-serif" font-size="21" fill="#065A82" font-weight="700" text-anchor="middle">товар 5</text><text x="128" y="156.0" font-family="Inter, Arial, sans-serif" font-size="20" fill="#065A82" font-weight="700" text-anchor="end">юзер 1</text><rect x="150" y="110" width="102" height="70" rx="8" fill="#065A82" stroke="#E5EAF0" stroke-width="1"/><text x="201.0" y="154.0" font-family="Inter, Arial, sans-serif" font-size="26" fill="#FFFFFF" font-weight="700" text-anchor="middle">✓</text><rect x="260" y="110" width="102" height="70" rx="8" fill="#F4F7FA" stroke="#E5EAF0" stroke-width="1"/><rect x="370" y="110" width="102" height="70" rx="8" fill="#065A82" stroke="#E5EAF0" stroke-width="1"/><text x="421.0" y="154.0" font-family="Inter, Arial, sans-serif" font-size="26" fill="#FFFFFF" font-weight="700" text-anchor="middle">✓</text><rect x="480" y="110" width="102" height="70" rx="8" fill="#F4F7FA" stroke="#E5EAF0" stroke-width="1"/><rect x="590" y="110" width="102" height="70" rx="8" fill="#F4F7FA" stroke="#E5EAF0" stroke-width="1"/><text x="128" y="234.0" font-family="Inter, Arial, sans-serif" font-size="20" fill="#F0AB00" font-weight="700" text-anchor="end">вы</text><rect x="150" y="188" width="102" height="70" rx="8" fill="#F0AB00" stroke="#F0AB00" stroke-width="2.5"/><text x="201.0" y="232.0" font-family="Inter, Arial, sans-serif" font-size="26" fill="#FFFFFF" font-weight="700" text-anchor="middle">✓</text><rect x="260" y="188" width="102" height="70" rx="8" fill="#F0AB00" stroke="#F0AB00" stroke-width="2.5"/><text x="311.0" y="232.0" font-family="Inter, Arial, sans-serif" font-size="26" fill="#FFFFFF" font-weight="700" text-anchor="middle">✓</text><rect x="370" y="188" width="102" height="70" rx="8" fill="#F0AB00" stroke="#F0AB00" stroke-width="2.5"/><text x="421.0" y="232.0" font-family="Inter, Arial, sans-serif" font-size="26" fill="#FFFFFF" font-weight="700" text-anchor="middle">✓</text><rect x="480" y="188" width="102" height="70" rx="8" fill="#F4F7FA" stroke="#F0AB00" stroke-width="2.5"/><rect x="590" y="188" width="102" height="70" rx="8" fill="#F4F7FA" stroke="#F0AB00" stroke-width="2.5"/><text x="128" y="312.0" font-family="Inter, Arial, sans-serif" font-size="20" fill="#065A82" font-weight="700" text-anchor="end">юзер 3</text><rect x="150" y="266" width="102" height="70" rx="8" fill="#F4F7FA" stroke="#E5EAF0" stroke-width="1"/><rect x="260" y="266" width="102" height="70" rx="8" fill="#065A82" stroke="#E5EAF0" stroke-width="1"/><text x="311.0" y="310.0" font-family="Inter, Arial, sans-serif" font-size="26" fill="#FFFFFF" font-weight="700" text-anchor="middle">✓</text><rect x="370" y="266" width="102" height="70" rx="8" fill="#065A82" stroke="#E5EAF0" stroke-width="1"/><text x="421.0" y="310.0" font-family="Inter, Arial, sans-serif" font-size="26" fill="#FFFFFF" font-weight="700" text-anchor="middle">✓</text><rect x="480" y="266" width="102" height="70" rx="8" fill="#065A82" stroke="#E5EAF0" stroke-width="1"/><text x="531.0" y="310.0" font-family="Inter, Arial, sans-serif" font-size="26" fill="#FFFFFF" font-weight="700" text-anchor="middle">✓</text><rect x="590" y="266" width="102" height="70" rx="8" fill="#F4F7FA" stroke="#E5EAF0" stroke-width="1"/><text x="128" y="390.0" font-family="Inter, Arial, sans-serif" font-size="20" fill="#065A82" font-weight="700" text-anchor="end">юзер 4</text><rect x="150" y="344" width="102" height="70" rx="8" fill="#065A82" stroke="#E5EAF0" stroke-width="1"/><text x="201.0" y="388.0" font-family="Inter, Arial, sans-serif" font-size="26" fill="#FFFFFF" font-weight="700" text-anchor="middle">✓</text><rect x="260" y="344" width="102" height="70" rx="8" fill="#F4F7FA" stroke="#E5EAF0" stroke-width="1"/><rect x="370" y="344" width="102" height="70" rx="8" fill="#065A82" stroke="#E5EAF0" stroke-width="1"/><text x="421.0" y="388.0" font-family="Inter, Arial, sans-serif" font-size="26" fill="#FFFFFF" font-weight="700" text-anchor="middle">✓</text><rect x="480" y="344" width="102" height="70" rx="8" fill="#F4F7FA" stroke="#E5EAF0" stroke-width="1"/><rect x="590" y="344" width="102" height="70" rx="8" fill="#065A82" stroke="#E5EAF0" stroke-width="1"/><text x="641.0" y="388.0" font-family="Inter, Arial, sans-serif" font-size="26" fill="#FFFFFF" font-weight="700" text-anchor="middle">✓</text><text x="128" y="468.0" font-family="Inter, Arial, sans-serif" font-size="20" fill="#065A82" font-weight="700" text-anchor="end">юзер 5</text><rect x="150" y="422" width="102" height="70" rx="8" fill="#F4F7FA" stroke="#E5EAF0" stroke-width="1"/><rect x="260" y="422" width="102" height="70" rx="8" fill="#F4F7FA" stroke="#E5EAF0" stroke-width="1"/><rect x="370" y="422" width="102" height="70" rx="8" fill="#F4F7FA" stroke="#E5EAF0" stroke-width="1"/><rect x="480" y="422" width="102" height="70" rx="8" fill="#065A82" stroke="#E5EAF0" stroke-width="1"/><text x="531.0" y="466.0" font-family="Inter, Arial, sans-serif" font-size="26" fill="#FFFFFF" font-weight="700" text-anchor="middle">✓</text><rect x="590" y="422" width="102" height="70" rx="8" fill="#065A82" stroke="#E5EAF0" stroke-width="1"/><text x="641.0" y="466.0" font-family="Inter, Arial, sans-serif" font-size="26" fill="#FFFFFF" font-weight="700" text-anchor="middle">✓</text><text x="380.0" y="536" font-family="Inter, Arial, sans-serif" font-size="19" fill="#5B6678" text-anchor="middle">«похожие на вас люди брали товар 1 — вероятно, понравится вам»</text></svg>